<?xml version="1.0" standalone="no"?>
<!DOCTYPE svg PUBLIC "-//W3C//DTD SVG 20010904//EN"
 "http://www.w3.org/TR/2001/REC-SVG-20010904/DTD/svg10.dtd">
<svg version="1.0" xmlns="http://www.w3.org/2000/svg"
 width="224.000000pt" height="224.000000pt" viewBox="0 0 224.000000 224.000000"
 preserveAspectRatio="xMidYMid meet">

<g transform="translate(0.000000,224.000000) scale(0.100000,-0.100000)"
fill="#000000" stroke="none">
<path d="M66 2113 c-4 -16 -9 -36 -12 -45 -4 -14 1 -18 23 -18 106 0 162 -55
313 -308 102 -170 116 -190 124 -170 40 98 77 158 136 218 71 72 122 100 149
83 32 -20 25 -50 -21 -81 -99 -68 -176 -184 -198 -299 -9 -51 -8 -55 25 -110
l35 -58 -6 46 c-13 97 33 224 112 309 58 62 107 89 128 71 28 -24 19 -56 -24
-86 -153 -106 -176 -345 -46 -478 46 -48 128 -91 191 -101 46 -8 131 7 180 30
39 18 64 16 79 -9 17 -27 -3 -49 -68 -75 -117 -47 -253 -36 -357 28 l-47 29
31 -54 c38 -67 76 -85 194 -92 90 -6 147 4 235 44 64 28 88 22 88 -23 0 -29
-47 -55 -157 -85 -64 -18 -95 -21 -171 -16 l-93 5 14 -21 c131 -205 142 -279
54 -375 -107 -115 -308 -153 -468 -88 l-64 26 -17 -21 c-25 -30 -22 -56 12
-115 37 -65 111 -131 164 -146 23 -6 45 -15 51 -20 22 -19 147 7 230 50 139
70 203 155 444 595 l81 148 -52 87 c-209 349 -219 364 -234 344 -19 -28 -68
-45 -107 -38 -39 7 -82 49 -91 88 -12 52 29 116 86 134 l28 9 -115 190 c-132
218 -138 239 -82 293 20 20 48 35 70 39 43 7 52 16 62 61 l7 32 -455 0 -455 0
-6 -27z m894 -502 c14 -26 16 -22 -34 -72 -72 -73 -84 -156 -33 -229 49 -73
128 -98 212 -66 34 14 49 15 65 6 62 -33 -28 -100 -135 -100 -144 0 -255 111
-255 255 0 74 24 129 79 184 45 45 84 54 101 22z"/>
<path d="M1537 2133 c-3 -5 -8 -23 -12 -40 -6 -32 -6 -33 27 -33 88 0 203 -53
226 -105 11 -23 17 -25 83 -25 l71 0 41 46 c43 49 109 84 157 84 20 0 30 6 34
20 3 11 9 29 12 40 5 20 1 20 -315 20 -176 0 -322 -3 -324 -7z"/>
</g>
</svg>
